<?xml version="1.0" standalone="no"?>
<!DOCTYPE svg PUBLIC "-//W3C//DTD SVG 20010904//EN"
 "http://www.w3.org/TR/2001/REC-SVG-20010904/DTD/svg10.dtd">
<svg version="1.0" xmlns="http://www.w3.org/2000/svg"
 width="512.000000pt" height="512.000000pt" viewBox="0 0 512.000000 512.000000"
 preserveAspectRatio="xMidYMid meet">
<metadata>
Created by potrace 1.14, written by Peter Selinger 2001-2017
</metadata>
<g transform="translate(0.000000,512.000000) scale(0.100000,-0.100000)"
fill="#000000" stroke="none">
<path d="M1280 4720 l0 -80 -80 0 -80 0 0 -80 0 -80 -80 0 -80 0 0 -80 0 -80
-80 0 -80 0 0 -720 0 -720 80 0 80 0 0 -160 0 -160 80 0 80 0 0 -80 0 -80 80
0 80 0 0 -80 0 -80 800 0 800 0 0 -80 0 -80 160 0 160 0 0 -400 0 -400 -80 0
-80 0 0 -80 0 -80 -640 0 -640 0 0 160 0 160 -80 0 -80 0 0 80 0 80 -80 0 -80
0 0 80 0 80 -160 0 -160 0 0 -80 0 -80 -80 0 -80 0 0 -80 0 -80 -80 0 -80 0 0
-320 0 -320 80 0 80 0 0 -80 0 -80 80 0 80 0 0 -80 0 -80 80 0 80 0 0 -80 0
-80 1280 0 1280 0 0 80 0 80 80 0 80 0 0 160 0 160 80 0 80 0 0 800 0 800 -80
0 -80 0 0 160 0 160 -80 0 -80 0 0 80 0 80 -80 0 -80 0 0 80 0 80 -160 0 -160
0 0 80 0 80 -880 0 -880 0 0 320 0 320 80 0 80 0 0 80 0 80 720 0 720 0 0 -80
0 -80 80 0 80 0 0 -80 0 -80 320 0 320 0 0 80 0 80 80 0 80 0 0 -80 0 -80 160
0 160 0 0 80 0 80 -80 0 -80 0 0 80 0 80 80 0 80 0 0 80 0 80 -80 0 -80 0 0
-80 0 -80 -80 0 -80 0 0 160 0 160 -80 0 -80 0 0 80 0 80 -80 0 -80 0 0 80 0
80 -80 0 -80 0 0 80 0 80 -1200 0 -1200 0 0 -80z"/>
</g>
</svg>
